<svg width="25" height="23" viewBox="0 0 25 23" fill="none" xmlns="http://www.w3.org/2000/svg">
<path d="M9.83564 1.12451V21.5215M4.73641 5.65717H5.86957M4.73641 9.05666H5.86957M1.33691 11.323C1.33691 7.14161 1.33691 5.05206 2.25931 3.57101C2.59155 3.03222 3.01529 2.55556 3.51146 2.16249C4.82706 1.12451 6.68545 1.12451 10.4022 1.12451H14.9349C18.6517 1.12451 20.5089 1.12451 21.8256 2.16249C22.3129 2.5455 22.7367 3.02256 23.0778 3.57101C24.0002 5.05206 24.0002 7.14161 24.0002 11.323C24.0002 15.5044 24.0002 17.5939 23.0778 19.075C22.7456 19.6137 22.3218 20.0904 21.8256 20.4835C20.51 21.5215 18.6517 21.5215 14.9349 21.5215H10.4022C6.68545 21.5215 4.82819 21.5215 3.51146 20.4835C3.01529 20.0904 2.59155 19.6137 2.25931 19.075C1.33691 17.5939 1.33691 15.5044 1.33691 11.323Z" stroke="white" stroke-width="1.5" stroke-linecap="round" stroke-linejoin="round"/>
</svg>
